HIERARCHY
ROOT Hips
{
  OFFSET 15.4817 39.7232 -8.35287
  CHANNELS 6 Xposition Yposition Zposition Zrotation Xrotation Yrotation
  JOINT LeftHip
  {
    OFFSET 3.43 0 0
    CHANNELS 6 Xposition Yposition Zposition Zrotation Xrotation Yrotation
    JOINT LeftKnee
    {
      OFFSET 0 -18.47 0
      CHANNELS 6 Xposition Yposition Zposition Zrotation Xrotation Yrotation
      JOINT LeftAnkle
      {
        OFFSET 0 -17.95 0
        CHANNELS 6 Xposition Yposition Zposition Zrotation Xrotation Yrotation
        End Site
        {
          OFFSET 0 -3.12 0
        }
      }
    }
  }
  JOINT RightHip
  {
    OFFSET -3.43 0 0
    CHANNELS 6 Xposition Yposition Zposition Zrotation Xrotation Yrotation
    JOINT RightKnee
    {
      OFFSET 0 -18.47 0
      CHANNELS 6 Xposition Yposition Zposition Zrotation Xrotation Yrotation
      JOINT RightAnkle
      {
        OFFSET 0 -17.95 0
        CHANNELS 6 Xposition Yposition Zposition Zrotation Xrotation Yrotation
        End Site
        {
          OFFSET 0 -3.12 0
        }
      }
    }
  }
  JOINT Chest
  {
    OFFSET 0 4.57 0
    CHANNELS 6 Xposition Yposition Zposition Zrotation Xrotation Yrotation
    JOINT CS_BVH
    {
      OFFSET 0 6.57 0
      CHANNELS 6 Xposition Yposition Zposition Zrotation Xrotation Yrotation
      JOINT LeftCollar
      {
        OFFSET 1.06 4.19 1.76
        CHANNELS 6 Xposition Yposition Zposition Zrotation Xrotation Yrotation
        JOINT LeftShoulder
        {
          OFFSET 5.81 0 0
          CHANNELS 6 Xposition Yposition Zposition Zrotation Xrotation Yrotation
          JOINT LeftElbow
          {
            OFFSET 0 -12.08 0
            CHANNELS 6 Xposition Yposition Zposition Zrotation Xrotation Yrotation
            JOINT LeftWrist
            {
              OFFSET 0 -9.82 0
              CHANNELS 6 Xposition Yposition Zposition Zrotation Xrotation Yrotation
              End Site
              {
                OFFSET 0 -7.37 0
              }
            }
          }
        }
      }
      JOINT RightCollar
      {
        OFFSET -1.06 4.19 1.76
        CHANNELS 6 Xposition Yposition Zposition Zrotation Xrotation Yrotation
        JOINT RightShoulder
        {
          OFFSET -6.06 0 0
          CHANNELS 6 Xposition Yposition Zposition Zrotation Xrotation Yrotation
          JOINT RightElbow
          {
            OFFSET 0 -11.08 0
            CHANNELS 6 Xposition Yposition Zposition Zrotation Xrotation Yrotation
            JOINT RightWrist
            {
              OFFSET 0 -9.82 0
              CHANNELS 6 Xposition Yposition Zposition Zrotation Xrotation Yrotation
              End Site
              {
                OFFSET 0 -7.14001 0
              }
            }
          }
        }
      }
      JOINT Neck
      {
        OFFSET 0 4.05 0
        CHANNELS 6 Xposition Yposition Zposition Zrotation Xrotation Yrotation
        JOINT Head
        {
          OFFSET 0 5.19 0
          CHANNELS 6 Xposition Yposition Zposition Zrotation Xrotation Yrotation
          End Site
          {
            OFFSET 0 4.14001 0
          }
        }
      }
    }
  }
}
MOTION
Frames:	9
Frame Time:	0.0333333
14.0449 39.9358 -6.67681 -0.368547 -0.708453 -0.0867075 3.43 9.12756e-010 -1.60032e-011 3.08533 -4.91131 0.747683 1.57372e-008 -18.47 1.10541e-007 0.375004 12.3734 -0.019062 1.5558e-008 -17.95 3.38894e-008 -1.66568 -7.9275 -0.28422 -3.43 -9.12749e-010 1.60023e-011 1.00882 -5.97497 1.17051 4.27853e-008 -18.47 -1.42709e-007 -0.758672 14.6028 -0.0292893 -2.59563e-008 -17.95 2.98131e-008 0.719971 -12.0446 0.287571 -1.05168e-009 4.57 4.29798e-011 -1.08212 1.41531 -0.684183 -1.67976e-009 6.57 2.67812e-010 3.3447 1.45384 -1.35506 1.06 4.19 1.76 2.60094 0.0665001 1.73226 5.81 -5.77685e-010 -2.42139e-010 73.0901 1.60737 7.90013 -4.70036e-009 -12.08 6.73172e-010 5.05201 -0.0075353 -1.03638 -1.10605e-009 -9.82 -1.29618e-009 9.47648e-011 -5.7731e-011 9.48049e-010 -1.06 4.19 1.76 -9.74536 0.104488 -1.0811 -6.06 -5.89036e-008 -4.70616e-010 -71.4888 -2.31446 -7.75794 -7.10448e-009 -11.08 -5.62306e-011 -6.08816 -0.0102874 2.35044 -1.10928e-009 -9.82 1.29577e-009 -9.53516 -2.50684 -10.5994 4.66962e-010 4.05 1.19922e-010 -3.43707 -7.3618 1.59282 3.38399e-009 5.19 -2.27068e-010 -1.69711 6.82367 1.37531 
14.0449 39.8806 -6.68868 -0.0748235 -0.79218 -0.121092 3.43 9.12756e-010 -1.60032e-011 2.86629 -5.24979 0.816054 1.57372e-008 -18.47 1.10541e-007 0.241738 13.2009 -0.0191246 1.5558e-008 -17.95 3.38894e-008 -1.60428 -8.31249 -0.284493 -3.43 -9.12749e-010 1.60023e-011 0.238533 -6.40316 0.720704 4.27853e-008 -18.47 -1.42709e-007 0.00185458 15.4366 -0.0762143 -2.59563e-008 -17.95 2.98131e-008 0.829918 -11.328 0.286828 -1.05168e-009 4.57 4.29798e-011 -1.30445 1.66391 -0.684262 -1.67976e-009 6.57 2.67812e-010 2.84035 1.17537 -1.28251 1.06 4.19 1.76 3.17598 0.066502 1.67541 5.81 -5.77685e-010 -2.42139e-010 72.5439 1.74476 7.87625 -4.70036e-009 -12.08 6.73172e-010 5.154 -0.043997 -1.06155 -1.10605e-009 -9.82 -1.29618e-009 9.47648e-011 -5.7731e-011 9.48049e-010 -1.06 4.19 1.76 -8.93908 0.168515 -1.83165 -6.06 -5.89036e-008 -4.70616e-010 -72.4434 -3.3894 -8.01042 -7.10448e-009 -11.08 -5.62306e-011 -5.74213 -0.010283 2.88807 -1.10928e-009 -9.82 1.29577e-009 -9.67109 -2.52598 -10.8398 4.66962e-010 4.05 1.19922e-010 -2.87283 -7.12486 1.5087 3.38399e-009 5.19 -2.27068e-010 -1.98066 6.772 1.49608 
14.0443 39.8271 -6.6987 0.210132 -0.866989 -0.152097 3.43 9.12756e-010 -1.60032e-011 2.65044 -5.559 0.874516 1.57372e-008 -18.47 1.10541e-007 0.11953 13.9565 -0.0191856 1.5558e-008 -17.95 3.38894e-008 -1.54952 -8.6603 -0.288389 -3.43 -9.12749e-010 1.60023e-011 -0.435673 -6.76244 0.349089 4.27853e-008 -18.47 -1.42709e-007 0.616408 16.1519 -0.125137 -2.59563e-008 -17.95 2.98131e-008 0.922847 -10.718 0.283593 -1.05168e-009 4.57 4.29798e-011 -1.62153 1.81793 -0.684318 -1.67976e-009 6.57 2.67812e-010 2.51709 1.01186 -1.23419 1.06 4.19 1.76 3.60184 0.066504 1.61533 5.81 -5.77685e-010 -2.42139e-010 72.0937 1.8603 7.87951 -4.70036e-009 -12.08 6.73172e-010 5.24767 -0.128984 -1.07918 -1.10605e-009 -9.82 -1.29618e-009 9.47648e-011 -5.7731e-011 9.48049e-010 -1.06 4.19 1.76 -8.16535 0.225626 -2.62357 -6.06 -5.89036e-008 -4.70616e-010 -73.4268 -4.53095 -8.31173 -7.10448e-009 -11.08 -5.62306e-011 -5.38328 -0.0102776 3.42891 -1.10928e-009 -9.82 1.29577e-009 -9.70279 -2.52523 -10.9153 4.66962e-010 4.05 1.19922e-010 -2.41854 -6.90914 1.44485 3.38399e-009 5.19 -2.27068e-010 -2.21858 6.70662 1.59967 
14.0458 39.8014 -6.70394 0.351623 -0.909582 -0.200394 3.43 9.12756e-010 -1.60032e-011 2.53554 -5.68986 0.894108 1.57372e-008 -18.47 1.10541e-007 0.062975 14.3069 -0.0203278 1.5558e-008 -17.95 3.38894e-008 -1.52924 -8.81506 -0.293367 -3.43 -9.12749e-010 1.60023e-011 -0.739266 -6.91831 0.197194 4.27853e-008 -18.47 -1.42709e-007 0.856779 16.4734 -0.142091 -2.59563e-008 -17.95 2.98131e-008 0.961435 -10.4617 0.279936 -1.05168e-009 4.57 4.29798e-011 -1.8982 1.77452 -0.656475 -1.67976e-009 6.57 2.67812e-010 2.56186 1.10329 -1.22342 1.06 4.19 1.76 3.62897 0.0665048 1.59161 5.81 -5.77685e-010 -2.42139e-010 71.9643 1.90106 7.94048 -4.70036e-009 -12.08 6.73172e-010 5.3087 -0.149687 -1.08924 -1.10605e-009 -9.82 -1.29618e-009 9.47648e-011 -5.7731e-011 9.48049e-010 -1.06 4.19 1.76 -7.80381 0.255495 -3.08412 -6.06 -5.89036e-008 -4.70616e-010 -73.9976 -5.22717 -8.49436 -7.10448e-009 -11.08 -5.62306e-011 -5.14045 -0.010275 3.66102 -1.10928e-009 -9.82 1.29577e-009 -9.63194 -2.51926 -10.7789 4.66962e-010 4.05 1.19922e-010 -2.334 -6.86807 1.44209 3.38399e-009 5.19 -2.27068e-010 -2.28047 6.69327 1.63263 
14.051 39.8003 -6.70575 0.367003 -0.936499 -0.282354 3.43 9.12756e-010 -1.60032e-011 2.5081 -5.66096 0.889469 1.57372e-008 -18.47 1.10541e-007 0.0568077 14.321 -0.0217915 1.5558e-008 -17.95 3.38894e-008 -1.51941 -8.81327 -0.298395 -3.43 -9.12749e-010 1.60023e-011 -0.747813 -6.903 0.214752 4.27853e-008 -18.47 -1.42709e-007 0.815803 16.4749 -0.135834 -2.59563e-008 -17.95 2.98131e-008 0.965969 -10.4706 0.27499 -1.05168e-009 4.57 4.29798e-011 -2.02626 1.64786 -0.616909 -1.67976e-009 6.57 2.67812e-010 2.76965 1.31992 -1.22266 1.06 4.19 1.76 3.39445 0.0665047 1.59421 5.81 -5.77685e-010 -2.42139e-010 72.0855 1.90318 8.00387 -4.70036e-009 -12.08 6.73172e-010 5.33534 -0.128221 -1.09366 -1.10605e-009 -9.82 -1.29618e-009 9.47648e-011 -5.7731e-011 9.48049e-010 -1.06 4.19 1.76 -7.86418 0.262529 -3.14528 -6.06 -5.89036e-008 -4.70616e-010 -74.0707 -5.36126 -8.50579 -7.10448e-009 -11.08 -5.62306e-011 -5.05941 -0.0102757 3.60026 -1.10928e-009 -9.82 1.29577e-009 -9.53971 -2.50727 -10.6112 4.66962e-010 4.05 1.19922e-010 -2.53866 -7.00183 1.48511 3.38399e-009 5.19 -2.27068e-010 -2.18502 6.75446 1.60457 
14.0583 39.8002 -6.70757 0.375139 -0.979164 -0.377357 3.43 9.12756e-010 -1.60032e-011 2.47671 -5.61172 0.87964 1.57372e-008 -18.47 1.10541e-007 0.0603024 14.3226 -0.023394 1.5558e-008 -17.95 3.38894e-008 -1.51228 -8.80952 -0.303342 -3.43 -9.12749e-010 1.60023e-011 -0.749778 -6.86553 0.23626 4.27853e-008 -18.47 -1.42709e-007 0.764181 16.4653 -0.127786 -2.59563e-008 -17.95 2.98131e-008 0.964494 -10.4806 0.267493 -1.05168e-009 4.57 4.29798e-011 -2.03828 1.62256 -0.585351 -1.67976e-009 6.57 2.67812e-010 2.83092 1.42341 -1.20426 1.06 4.19 1.76 3.2304 0.0665045 1.60068 5.81 -5.77685e-010 -2.42139e-010 72.2157 1.94632 7.97584 -4.70036e-009 -12.08 6.73172e-010 5.33112 -0.113197 -1.0943 -1.10605e-009 -9.82 -1.29618e-009 9.47648e-011 -5.7731e-011 9.48049e-010 -1.06 4.19 1.76 -8.00774 0.265194 -3.10733 -6.06 -5.89036e-008 -4.70616e-010 -73.9686 -5.32039 -8.50373 -7.10448e-009 -11.08 -5.62306e-011 -5.09468 -0.0102759 3.58698 -1.10928e-009 -9.82 1.29577e-009 -9.47062 -2.49351 -10.5796 4.66962e-010 4.05 1.19922e-010 -2.73115 -7.14518 1.52555 3.38399e-009 5.19 -2.27068e-010 -2.06856 6.81309 1.57158 
14.0654 39.7952 -6.71022 0.405798 -1.03414 -0.451513 3.43 9.12756e-010 -1.60032e-011 2.42362 -5.59495 0.867459 1.57372e-008 -18.47 1.10541e-007 0.065646 14.4013 -0.0249351 1.5558e-008 -17.95 3.38894e-008 -1.50774 -8.84142 -0.308046 -3.43 -9.12749e-010 1.60023e-011 -0.814178 -6.86015 0.218447 4.27853e-008 -18.47 -1.42709e-007 0.78216 16.535 -0.124331 -2.59563e-008 -17.95 2.98131e-008 0.962586 -10.427 0.261251 -1.05168e-009 4.57 4.29798e-011 -2.03241 1.699 -0.568805 -1.67976e-009 6.57 2.67812e-010 2.78327 1.39053 -1.18355 1.06 4.19 1.76 3.18622 0.0665047 1.5943 5.81 -5.77685e-010 -2.42139e-010 72.3082 2.03654 7.86136 -4.70036e-009 -12.08 6.73172e-010 5.28307 -0.0900435 -1.08524 -1.10605e-009 -9.82 -1.29618e-009 9.47648e-011 -5.7731e-011 9.48049e-010 -1.06 4.19 1.76 -8.09412 0.265713 -3.12835 -6.06 -5.89036e-008 -4.70616e-010 -73.8691 -5.33662 -8.59174 -7.10448e-009 -11.08 -5.62306e-011 -5.20751 -0.0102741 3.7414 -1.10928e-009 -9.82 1.29577e-009 -9.40493 -2.4765 -10.6336 4.66962e-010 4.05 1.19922e-010 -2.8236 -7.20933 1.54833 3.38399e-009 5.19 -2.27068e-010 -2.00266 6.80367 1.55508 
14.0703 39.7932 -6.71231 0.41163 -1.07536 -0.497551 3.43 9.12756e-010 -1.60032e-011 2.39759 -5.58169 0.857255 1.57372e-008 -18.47 1.10541e-007 0.0701116 14.4568 -0.0261947 1.5558e-008 -17.95 3.38894e-008 -1.50527 -8.85636 -0.312603 -3.43 -9.12749e-010 1.60023e-011 -0.833539 -6.85314 0.221295 4.27853e-008 -18.47 -1.42709e-007 0.781675 16.5709 -0.121271 -2.59563e-008 -17.95 2.98131e-008 0.962495 -10.3965 0.25507 -1.05168e-009 4.57 4.29798e-011 -2.07213 1.75922 -0.555828 -1.67976e-009 6.57 2.67812e-010 2.84155 1.35216 -1.18397 1.06 4.19 1.76 3.11647 0.0665053 1.57496 5.81 -5.77685e-010 -2.42139e-010 72.4397 2.1209 7.76095 -4.70036e-009 -12.08 6.73172e-010 5.20326 -0.0296296 -1.07037 -1.10605e-009 -9.82 -1.29618e-009 9.47648e-011 -5.7731e-011 9.48049e-010 -1.06 4.19 1.76 -8.19937 0.265073 -3.1245 -6.06 -5.89036e-008 -4.70616e-010 -73.7511 -5.31917 -8.69625 -7.10448e-009 -11.08 -5.62306e-011 -5.34454 -0.0102723 3.89359 -1.10928e-009 -9.82 1.29577e-009 -9.34551 -2.46234 -10.6786 4.66962e-010 4.05 1.19922e-010 -2.90778 -7.24903 1.55138 3.38399e-009 5.19 -2.27068e-010 -1.98689 6.76267 1.54204 
14.0739 39.7944 -6.71436 0.393003 -1.08559 -0.52921 3.43 9.12756e-010 -1.60032e-011 2.40355 -5.57521 0.85854 1.57372e-008 -18.47 1.10541e-007 0.0730869 14.467 -0.0269594 1.5558e-008 -17.95 3.38894e-008 -1.50466 -8.8619 -0.317016 -3.43 -9.12749e-010 1.60023e-011 -0.794776 -6.84342 0.254513 4.27853e-008 -18.47 -1.42709e-007 0.747588 16.5598 -0.11824 -2.59563e-008 -17.95 2.98131e-008 0.96269 -10.3952 0.248484 -1.05168e-009 4.57 4.29798e-011 -2.15194 1.76743 -0.538833 -1.67976e-009 6.57 2.67812e-010 3.01155 1.34752 -1.19501 1.06 4.19 1.76 3.01858 0.0665056 1.56546 5.81 -5.77685e-010 -2.42139e-010 72.5725 2.17788 7.7272 -4.70036e-009 -12.08 6.73172e-010 5.13374 -0.00570338 -1.05389 -1.10605e-009 -9.82 -1.29618e-009 9.47648e-011 -5.7731e-011 9.48049e-010 -1.06 4.19 1.76 -8.30488 0.264249 -3.07365 -6.06 -5.89036e-008 -4.70616e-010 -73.6728 -5.22848 -8.71757 -7.10448e-009 -11.08 -5.62306e-011 -5.40989 -0.0102715 3.95874 -1.10928e-009 -9.82 1.29577e-009 -9.33357 -2.45807 -10.7692 4.66962e-010 4.05 1.19922e-010 -2.98333 -7.31675 1.5486 3.38399e-009 5.19 -2.27068e-010 -2.00713 6.75858 1.52859 
